<?xml version="1.0" encoding="utf-8"?>
<!-- Svg Vector Icons : http://www.onlinewebfonts.com/icon -->
<!DOCTYPE svg PUBLIC "-//W3C//DTD SVG 1.1//EN" "http://www.w3.org/Graphics/SVG/1.1/DTD/svg11.dtd">
<svg version="1.1" xmlns="http://www.w3.org/2000/svg" xmlns:xlink="http://www.w3.org/1999/xlink" x="0px" y="0px" viewBox="0 0 256 256" enable-background="new 0 0 256 256" xml:space="preserve">
<metadata> Svg Vector Icons : http://www.onlinewebfonts.com/icon </metadata>
<g><g><path fill="#000000" d="M212.9,89.8c8.2,17.7,11.2,38.3,7,59.8c-7.6,38.6-38.5,68.5-77.3,75.1C76.5,235.9,20.1,179.5,31.3,113.3c6.6-38.9,36.6-69.7,75.2-77.3c21.6-4.2,42.3-1.2,60,7.2l14.6-14.9c-16.4-8.9-35.3-14-55.3-14C61.9,14.3,10,66.2,10,130.1c0,64,51.9,115.8,115.8,115.8c64,0,115.8-51.9,115.8-115.8c0-20-5.1-38.8-14-55.2L212.9,89.8L212.9,89.8z M76.2,179.8l39.7-13.2l92.3-86.2c3.8-3.6,3.9-9.6,0.2-13.2l0,0c-3.6-3.6-9.4-3.6-13,0L112.6,150c-1.8,1.8-4.8,1.8-6.6,0l0,0c-1.8-1.8-1.8-4.8,0-6.6l82.9-82.9c3.6-3.6,3.6-9.4,0-13l0,0c-3.7-3.7-9.7-3.6-13.2,0.2l-86.2,92.3L76.2,179.8L76.2,179.8z M211.1,56.1l4,4c4,4,10.4,4,14.4,0l4-4l5.6-5.6c9.3-9.3,9.3-24.3,0-33.5c-9.3-9.2-24.3-9.2-33.5,0l-5.6,5.6l-4,4c-4,4-4,10.4,0,14.4l4,4L211.1,56.1L211.1,56.1z M218.9,29.6c2.1-2,5.4-2,7.5,0c2,2,2,5.4,0,7.5l-3.7,3.7l-7.5-7.5L218.9,29.6L218.9,29.6z"/></g></g>
</svg>